<svg width="5573" height="1291" viewBox="0 0 5573 1291" fill="none" xmlns="http://www.w3.org/2000/svg">
<path d="M1915.6 1060V500H2070.8L2294.8 865.6H2213.2L2430.8 500H2586L2587.6 1060H2415.6L2414 759.2H2441.2L2292.4 1009.6H2209.2L2054 759.2H2087.6V1060H1915.6ZM2875.68 708H3125.28V844H2875.68V708ZM2888.48 917.6H3168.48V1060H2702.88V500H3158.08V642.4H2888.48V917.6ZM3209.26 1060L3458.86 711.2L3458.06 843.2L3216.46 500H3428.46L3569.26 708L3478.86 708.8L3616.46 500H3819.66L3578.06 836V704.8L3831.66 1060H3615.66L3474.86 842.4L3562.06 841.6L3424.46 1060H3209.26ZM3878.23 1060V500H4067.03V1060H3878.23ZM4471.51 1072.8C4426.71 1072.8 4385.11 1065.87 4346.71 1052C4308.85 1037.6 4275.78 1017.33 4247.51 991.2C4219.78 965.067 4198.18 934.133 4182.71 898.4C4167.25 862.667 4159.51 823.2 4159.51 780C4159.51 736.8 4167.25 697.333 4182.71 661.6C4198.18 625.867 4219.78 594.933 4247.51 568.8C4275.78 542.667 4308.85 522.667 4346.71 508.8C4385.11 494.4 4426.71 487.2 4471.51 487.2C4526.45 487.2 4574.98 496.8 4617.11 516C4659.78 535.2 4694.98 562.933 4722.71 599.2L4603.51 705.6C4586.98 684.8 4568.58 668.8 4548.31 657.6C4528.58 645.867 4506.18 640 4481.11 640C4461.38 640 4443.51 643.2 4427.51 649.6C4411.51 656 4397.65 665.333 4385.91 677.6C4374.71 689.867 4365.91 704.8 4359.51 722.4C4353.11 739.467 4349.91 758.667 4349.91 780C4349.91 801.333 4353.11 820.8 4359.51 838.4C4365.91 855.467 4374.71 870.133 4385.91 882.4C4397.65 894.667 4411.51 904 4427.51 910.4C4443.51 916.8 4461.38 920 4481.11 920C4506.18 920 4528.58 914.4 4548.31 903.2C4568.58 891.467 4586.98 875.2 4603.51 854.4L4722.71 960.8C4694.98 996.533 4659.78 1024.27 4617.11 1044C4574.98 1063.2 4526.45 1072.8 4471.51 1072.8ZM5083.11 1072.8C5037.77 1072.8 4995.64 1065.6 4956.71 1051.2C4918.31 1036.8 4884.97 1016.53 4856.71 990.4C4828.44 963.733 4806.31 932.533 4790.31 896.8C4774.84 861.067 4767.11 822.133 4767.11 780C4767.11 737.333 4774.84 698.4 4790.31 663.2C4806.31 627.467 4828.44 596.533 4856.71 570.4C4884.97 543.733 4918.31 523.2 4956.71 508.8C4995.64 494.4 5037.77 487.2 5083.11 487.2C5128.97 487.2 5171.11 494.4 5209.51 508.8C5247.91 523.2 5281.24 543.733 5309.51 570.4C5337.77 596.533 5359.64 627.467 5375.11 663.2C5391.11 698.4 5399.11 737.333 5399.11 780C5399.11 822.133 5391.11 861.067 5375.11 896.8C5359.64 932.533 5337.77 963.733 5309.51 990.4C5281.24 1016.53 5247.91 1036.8 5209.51 1051.2C5171.11 1065.6 5128.97 1072.8 5083.11 1072.8ZM5083.11 920C5100.71 920 5116.97 916.8 5131.91 910.4C5147.37 904 5160.71 894.933 5171.91 883.2C5183.64 870.933 5192.71 856.267 5199.11 839.2C5205.51 821.6 5208.71 801.867 5208.71 780C5208.71 758.133 5205.51 738.667 5199.11 721.6C5192.71 704 5183.64 689.333 5171.91 677.6C5160.71 665.333 5147.37 656 5131.91 649.6C5116.97 643.2 5100.71 640 5083.11 640C5065.51 640 5048.97 643.2 5033.51 649.6C5018.57 656 5005.24 665.333 4993.51 677.6C4982.31 689.333 4973.51 704 4967.11 721.6C4960.71 738.667 4957.51 758.133 4957.51 780C4957.51 801.867 4960.71 821.6 4967.11 839.2C4973.51 856.267 4982.31 870.933 4993.51 883.2C5005.24 894.933 5018.57 904 5033.51 910.4C5048.97 916.8 5065.51 920 5083.11 920Z" fill="#FBBA00"/>
<path fill-rule="evenodd" clip-rule="evenodd" d="M96 969.848V606.848V606.348H203.5V732.348H264.5V606.848H372.5V969.848H264.5V839.848H203V969.848H96Z" fill="#003758"/>
<path fill-rule="evenodd" clip-rule="evenodd" d="M435.5 970.348V606.348H544.5V970.348H435.5Z" fill="#003758"/>
<path fill-rule="evenodd" clip-rule="evenodd" d="M607.5 970.348V606.348H740.5C937.5 631.348 910 881.348 740.5 891.348H716.4V970.348H607.5ZM715.5 709.348V788.348H737.5C787.5 785.348 789.5 713.848 737.5 709.348H715.5Z" fill="#003758"/>
<path fill-rule="evenodd" clip-rule="evenodd" d="M1214 788.848C1221 547.348 1571.5 524.348 1592.5 788.848C1573.64 1056.93 1218.42 1023.59 1214 788.848ZM1331 788.848C1331 697.848 1469 687.348 1475.5 788.848C1464.33 899.171 1326.33 868.167 1331 788.848Z" fill="#003758"/>
<path fill-rule="evenodd" clip-rule="evenodd" d="M920.5 606.848V970.848H1029.4V891.848H1053.5C1223 881.848 1250.5 631.848 1053.5 606.848H920.5ZM1028.5 709.848H1050.5C1102.5 714.348 1100.5 785.848 1050.5 788.848H1028.5V709.848Z" fill="#003758"/>
<path d="M1132.53 571H556.804C361.466 278.96 610.423 5.25 818.71 1.17976L829.328 0H858.232L867.67 1.17816C1113.06 13.5672 1313.62 300.838 1132.53 571Z" fill="#0084B4"/>
<path d="M556.5 560.5L556 571.5H1132V569.5L1131 559L1129.5 550L1128 543L1126 537L1124 529L1121.5 522.5L1119 516.5L1115.5 508.5L1112 502L1109.5 497L1106.5 492L1102.5 487L1099.5 482L1096.5 477L1092 472L1086.5 465.5L1083 461.5L1077.5 455.5L1073 451L1069 447L1065.5 443.5L1060.5 439L1055 434.5L1050 431L1045 426.5L1039 423L1034 419L1027.5 415L1023.5 412.5V387L1022.5 377.5L1019.5 367.5L1017.5 360L1015.5 354.5L1012.5 348L1010.5 343L1008 339L1006.5 336L1004 332L1002 328.5L1000.5 326.5V325L1001.5 323.5L1005.5 320L1008.5 316L1013 311.5L1016 305.5L1018.5 301L1021 296L1023.5 288L1024.5 281.5V266.5L1023.5 260L1022.5 256L1019.5 249.5L1016.5 243L1013.5 239L1009 235L1005.5 232L1002 229L996.5 226.5L992 224.5L986.5 223H969.5L962 225L955 227.5L949 231L944.5 234L940.5 237L936.5 240.5L932.5 244L930 248L928 251.5L925.5 255.5L923.5 259.5L922 262.5L920 263L917 262L910.5 259.5L904 257.5L896 255L890.5 254L885 252.5L878.5 251.5L869.5 250L856 249H833.5L820.5 250.5L812 251.5L805.5 252.5L800.5 253.5L795.5 254.5L790 256L785.5 257.5L778 260L772.5 261.5L769 263.5H766L765 260.5L764 258L761.5 254L759.5 250.5L757 247L754.5 244L751 240L748.5 237.5L745.5 235L743 233L738.5 230.5L734 228L728.5 225.5L724.5 224L719.5 223H700.5L696.5 224.5L690.5 226.5L684.5 230L680 233.5L677 236.5L674 240L671 244L668.5 248.5L666 255L663.5 262V284L666 292L667.5 296.5L669 300L670.5 304.5L673 308L675.5 311.5L677.5 314.5L680 317.5L682.5 320L685.5 322.5L687.5 324.5V325.5L685 329L682.5 333L679.5 338.5L677 343L674.5 348.5L671.5 357.5L669 364.5L666 374.5L663.5 392.5V403.5L665 410.5V413L662.5 414.5L659 416.5L655.5 418.5L650.5 421.5L645 425.5L639.5 429.5L635 433L632 435L628.5 438L622.5 443.5L618.5 447L615 450.5L612 454L609 456.5L605.5 460L601.5 465L597.5 469.5L594.5 473.5L592 477.5L589 481L586 485L582 491.5L579 497L576.5 501.5L573 507.5L569.5 515.5L566 523.5L563.5 531L560.5 541.5L558.5 549.5L556.5 560.5Z" fill="white"/>
<path fill-rule="evenodd" clip-rule="evenodd" d="M947.5 1185H946V1198L947 1202L948 1205.5L949 1208.5L951 1211.5L954 1215.5L957 1219L960 1221.5L962.5 1223L965.5 1224L968 1225L971.5 1226H977.5L981.5 1225L986 1223L990 1221L994 1218L998.5 1215L1001.5 1213L1004 1211L1005.5 1210H1007.5L1010.5 1212L1012.5 1213.5L1014 1215L1015 1219V1224.5L1013 1229L1011 1232.5L1008.5 1234.5L1006 1237L1003 1240L999.5 1242.5L996 1244L992 1246L988 1247L984 1248.5L975.5 1249H964.5L957 1247L950 1245L945 1242.5L941 1241L938 1238.5L935 1236L931.5 1232.5L929 1229.5L925.5 1225L924 1221.5L922 1217.5L920.5 1212.5L919 1208L918 1202.5L917.5 1197.5L917 1191.5L916 1186.5V1179.5L917 1174.5L918 1168L919 1163.5L920 1158L921 1153.5L922.5 1150L924 1145L926 1141.5L927.5 1139L929.5 1135.5L931.5 1132L933.5 1129L936.5 1126L939.5 1123.5L942 1121L946 1118L949 1116L953.5 1114L956 1113L960 1112L966 1111.5H974L979.5 1112.5L984 1113.5L988 1115.5L991.5 1117.5L994.5 1120L997.5 1123L1000 1125.5L1002.5 1129.5L1004 1133L1005.5 1136.5V1141.5V1150L1004.5 1155L1003 1159L1002 1162L1000 1165.5L997.5 1169L994.5 1173L992 1176L989 1178.5L985 1180.5L980.5 1183.5L975 1185.5L968 1187H959.5H953.5L950 1186L947.5 1185ZM947 1166L947.5 1162.5L949 1158L950 1153.5L951 1149.5L953 1146L954 1143L956.5 1140.5L959.5 1137L963.5 1134.5L966 1133.5H973L976 1136L978 1138.5L979 1141L980 1144V1149.5L979.5 1153L978 1155.5L976 1158.5L974 1160L971.5 1162.5L968.5 1164L965 1165L962 1165.5L958.5 1166.5H950.5L947 1166Z" fill="#0084B4"/>
<path d="M1480 1123.5L1482 1124.5H1484.5L1487 1123L1489.5 1121L1491.5 1118L1492.5 1115L1492 1111.5L1491 1107.5L1489.5 1105L1488.5 1102.5V1100.5L1489 1097L1491 1094.5L1492.5 1091L1494.5 1087.5L1497 1083.5L1499.5 1079.5L1501.5 1076.5L1503.5 1073.5L1505 1072L1507 1070.5L1508.5 1069H1510.5L1512.5 1070.5L1514.5 1072.5L1516 1076.5V1088.5L1515 1093.5L1514 1098L1512 1102.5L1509.5 1108.5L1506 1115.5L1503 1122.5L1500 1129L1497 1136L1495 1140.5L1492 1145.5L1489.5 1151.5L1487.5 1155L1483.5 1162L1481 1166.5L1478 1171.5L1475 1177.5L1473 1181.5L1470.5 1186L1467 1192.5L1464 1198.5L1461 1203.5L1458 1209L1455 1215L1453 1220L1451 1224.5L1449 1228.5L1447 1233L1445 1237L1444 1239V1242.5L1444.5 1244L1447 1248L1450.5 1251L1456 1254.5L1460 1255.5H1499H1518.5L1536 1254.5L1544 1254L1548 1252L1552 1250.5L1555 1247.5L1556 1244.5V1236.5L1554.5 1233.5L1552.5 1230L1547 1228L1540 1226L1531.5 1224.5H1485L1484.5 1224L1485.5 1222L1487 1216.5L1490 1210.5L1494.5 1200.5L1500.5 1189.5L1505 1182.5L1508.5 1176L1513.5 1165.5L1518 1157L1521.5 1149.5L1524 1143L1526.5 1137L1529 1132L1531 1126.5L1533.5 1121.5L1536 1116.5L1537.5 1110.5L1539 1107L1540.5 1100L1542 1095.5L1543 1084.5V1069L1542 1064.5L1541 1058.5L1539 1054L1537 1050L1534 1046.5L1530.5 1043.5L1525 1041.5H1514L1508 1043.5L1502.5 1045.5L1497 1048L1492 1050L1487.5 1053L1482 1057.5L1477.5 1061.5L1473.5 1066L1470.5 1070.5L1467 1075.5L1464 1081L1462 1085L1460 1089.5L1459 1093.5V1102.5L1459.5 1105L1461.5 1108L1463.5 1110L1466 1113L1468.5 1115L1471 1117.5L1473.5 1119L1476 1121.5L1480 1123.5Z" fill="#0084B4"/>
<path fill-rule="evenodd" clip-rule="evenodd" d="M70 1024L79 1020H80.5L83 1021L87 1022L94.5 1024H116.5L124 1022.5L132 1021L141.5 1019L147.5 1018L152 1016.5L156.5 1015L161.5 1014H175L178 1014.5L179 1016L180.5 1019L184 1019.5L186 1020L188.5 1021.5L189.5 1024L188.5 1029.5L187.5 1033L184.5 1036.5L182.5 1039L179 1041L176 1042L169 1043L163 1044.5L158 1046L152.5 1047L144 1048L137 1050L130.5 1051L122 1052L111.5 1054L105.5 1054.5L104 1056.5L103 1063.5L102.5 1078L101 1092L100 1105.5L99 1119.5L98 1140.5V1154.5L97 1168V1222L98 1234.5V1250L97 1253.5L96 1256L93 1258H84.5L78.5 1255L74 1252L71 1248L68 1243L66 1236.5L65 1229V1221.19V1184.5V1169.5L66 1155L67 1142L68 1128V1118.5L69 1102L70 1089L71 1069V1058.5H62L56.5 1059L49.5 1060L44 1061L39 1062H25.5L21 1061L17 1060L12 1058L8.5 1056L5 1054L3.5 1051L2 1049L1 1046L0 1044V1041L1 1039L2 1038L3.5 1037L6.5 1036L12.5 1035L20.5 1033L29 1032L37.5 1031L44.5 1030L50 1029L55 1028L59 1027L63 1026L67 1025L70 1024Z" fill="#0084B4"/>
<path fill-rule="evenodd" clip-rule="evenodd" d="M215 1014L220 1013H223.5L225 1014L227 1014.5L229 1015L231 1016.5L232.5 1018.5L234 1021.5L235.5 1025.5L236 1034V1042.5L235 1048L234 1053L233 1062.5L232.5 1080L232 1098L231 1123.5L230.5 1141L230 1160.5L231 1159L233 1156L234 1153L236 1150L237 1147.5L239 1144L241 1140L244 1135L246 1132L249 1128L252 1125L255 1122L258 1120L262 1117L266.5 1115L269.5 1114H274L278.5 1115L283.5 1117L286.5 1119L289.5 1122L293 1125.5L295.5 1130L299 1136.5L301.5 1144L303 1148L304 1154.5V1160L305 1167L306.5 1181L308 1194L310 1205.5L312.5 1215L315 1223L316 1231L317 1234V1240L316 1242L314 1244L312 1246L309 1248H301L298 1246.5L295.5 1245L293 1243L292 1241L290 1238L288 1234L286 1230L285 1227L283 1221.5L282 1218L281 1213V1208L280 1207V1201L279 1186L278 1173L277 1168.5L276 1163L275 1158L274 1155L273 1150.5L272 1146H270L268 1147.5L265 1150L262.5 1153L260 1158L256 1165.5L253 1172.5L250 1181L248 1188L246 1195L244 1202L243 1207L242 1211L241 1217.5L240 1230L239 1235.5L237 1241L235 1244L232 1246H226L221 1245L219 1244L217 1243L213 1240L211 1237L209 1234L207 1230L206 1226V1222.5L205 1182L204.5 1162L204 1149.08V1097V1071L205 1053L206 1041.5L207 1034L208 1027.5L209 1022L210 1018L211 1016L212 1015L215 1014Z" fill="#0084B4"/>
<path fill-rule="evenodd" clip-rule="evenodd" d="M364 1202L363 1198V1185H364.5L367 1186L370.5 1187H376.5H385L392 1185.5L397.5 1183.5L402 1180.5L406 1178.5L409 1176L411.5 1173L414.5 1169L417 1165.5L419 1162L420 1159L421.5 1155L422.5 1150V1141.5V1136.5L421 1133L419.5 1129.5L417 1125.5L414.5 1123L411.5 1120L408.5 1117.5L405 1115.5L401 1113.5L396.5 1112.5L391 1111.5H383L377 1112L373 1113L370.5 1114L366 1116L363 1118L359 1121L356.5 1123.5L353.5 1126L350.5 1129L348.5 1132L346.5 1135.5L344.5 1139L343 1141.5L341 1145L339.5 1150L338 1153.5L337 1158L336 1163.5L335 1168L334 1174.5L333 1179.5V1186.5L334 1191.5L334.5 1197.5L335 1202.5L336 1208L337.5 1212.5L339 1217.5L341 1221.5L342.5 1225L346 1229.5L348.5 1232.5L352 1236L355 1238.5L358 1241L362 1242.5L367 1245L374 1247L381.5 1249H392.5L401 1248.5L405 1247L409 1246L413 1244L416.5 1242.5L420 1240L423 1237L425.5 1234.5L428 1232.5L430 1229L432 1224.5V1219L431 1215L429.5 1213.5L427.5 1212L424.5 1210H422.5L421 1211L418.5 1213L415.5 1215L411 1218L407 1221L403 1223L398.5 1225L394.5 1226H388.5L385 1225L382.5 1224L379.5 1223L377 1221.5L374 1219L371 1215.5L368 1211.5L366 1208.5L365 1205.5L364 1202ZM364 1166L364.5 1162.5L366 1158L367 1153.5L368 1149.5L370 1146L371 1143L373.5 1140.5L376.5 1137L380.5 1134.5L383 1133.5H390L393 1136L395 1138.5L396 1141L397 1144V1149.5L396.5 1153L395 1155.5L393 1158.5L391 1160L388.5 1162.5L385.5 1164L382 1165L379 1165.5L375.5 1166.5H367.5L364 1166Z" fill="#0084B4"/>
<path fill-rule="evenodd" clip-rule="evenodd" d="M553 1041L554 1044V1048.5L553 1051.5L552 1054.5L551 1056.5L548.5 1058.5L546.5 1060L540.5 1061.5L534.5 1062.5L528.5 1064.5L522 1067L515.5 1070L511 1074L506.5 1078L501.5 1082.5L497.5 1087L495.5 1090.5L491 1096.5L487.5 1103L484 1111L481 1119L479 1126.5L478 1131L477 1136L476 1144L475 1150V1165L476 1176L478 1186L482 1196.5L486 1206.5L489.5 1215L494.5 1222.5L502 1231.5L511 1241.5L513.5 1244L517.5 1248L523 1253L527.5 1257L533 1260L539 1263L544.5 1265L548.5 1266L552 1268.5L553.5 1271L555 1274V1277L554 1281.5L552 1284.5L550 1287L546.5 1290H543.5L538 1289L532 1287L526 1285L518 1281.5L511 1277L506 1274L501.5 1270.5L496.5 1266.5L492.5 1263L488 1260L484.5 1256L481 1253L478 1249.5L473.5 1244.5L471.5 1242.5L469 1240L466.5 1236L464 1233L462 1230L459.5 1225L457 1221L455 1216.5L453 1211L451.5 1203.5L450.5 1199L449 1194L448 1182.5L447 1168L446 1157.13V1146.5L447 1136.5L448 1128L449 1122L450 1117.5L451 1113L452 1110L453 1107.5L454.5 1103L456 1100L457 1097L459 1093.5L460.5 1090L463 1086L465 1082.5L467 1079.5L469 1076.5L471.5 1073L474 1070.5L476.5 1067L481 1062.5L484 1059L487.5 1056L491 1053L495 1049.5L499 1046L502 1044L505 1042L508.5 1040L512.5 1038L516.5 1036L521 1034.5L524.5 1033L529 1032H535L540.5 1033L544 1034L548 1036L551 1038L553 1041Z" fill="#0084B4"/>
<path fill-rule="evenodd" clip-rule="evenodd" d="M598 1113L602 1112H605.5L608 1112.5L610 1113.5L613 1116L618.5 1118.5L624 1121L629 1123L634.5 1125.5L641 1128L648 1131.5L652.5 1135L657 1140L660.5 1148.5L663.5 1153.5L665 1161V1167.5L664.5 1180.5L661.5 1189.5L658.5 1198L654 1205.5L649.5 1212.5L645 1219.5L640 1226L635 1231L629 1236.5L624.5 1240L619.5 1243L614.5 1245H597.5L591 1243.5L585.5 1239L579 1235.5L571 1231L567 1227L563 1222.5L560 1218L557 1212L555 1206L554 1198V1188.5L555 1181L556 1173.5L557.5 1167.5L559 1162.5L560 1158.5L560.5 1153L562.5 1148.5L565 1143.5L568 1139.5L570.5 1134.5L574 1130.5L577 1127L581 1123L584 1121L587 1119L589 1117L591 1116L593 1115L595 1114L598 1113ZM608.5 1142C607.833 1142.33 606.4 1143 606 1143C605.6 1143 603.833 1143.67 603 1144L601 1145L599 1147L597 1149L595.5 1151L594 1153L592.5 1155.5L591 1158.5L589.5 1162L587.5 1167L586.5 1170.5L585.5 1174.5L584.5 1181L583.5 1187.5V1200L584.5 1204.5L586.5 1209.5L588.5 1213.5L591 1216.5L593.5 1217.5L595 1218.5L598 1219C597.833 1219.17 598.1 1219.3 600.5 1218.5C602.9 1217.7 603.833 1217.17 604 1217L607 1216L611.5 1213.5L614.5 1211.5L616 1209.5L618.5 1206L621 1202.5L623 1199L625.5 1195L627 1191.5L628 1187L629.5 1182L630.5 1179L632 1173L633 1164V1159L632 1155L629.5 1151L627 1147.5L624 1145.5L621 1145L618 1143.5L615.5 1142.5L613 1142H608.5Z" fill="#0084B4"/>
<path fill-rule="evenodd" clip-rule="evenodd" d="M692 1115L695 1113H706.5L710 1114L712.5 1116.5L714 1120L715.5 1124L717 1129.5L718 1145V1168L717.5 1186V1190.5L718 1191.5L719.5 1191L720.5 1188.5L722 1186.5L723.5 1184L725 1181.5L725.5 1177.5L727 1174L729 1168.5L730.5 1163.5L733 1159.5L735 1155L736.5 1151.5L739 1147.5L740.5 1144L743.5 1139.5L746.5 1134.5L749 1131L752.5 1127.5L755.5 1124.5L758 1122.5L761 1120L763.5 1118.5L765.5 1117L769.5 1116H775L778.5 1118L780 1118.5L782 1120.5L783.5 1123L786 1126L788 1130.5L789 1135.5L790 1140L792 1145.5L794.5 1152L796.5 1157L798.5 1162.5L800 1171.5L803 1182.5L804 1194L805.5 1203.5L806.5 1209.5L807.5 1217L810 1225L811 1230L812 1234L814 1238V1240.5L813.5 1243L812 1245L809 1247.5L805.5 1249L802 1250.5H794.5L792.5 1249.5L789.5 1247.5L787 1245L785.5 1242.5L783.5 1238L782 1235L781 1230.5L780 1222L778.5 1213.5L777.5 1209L776 1205L775.5 1200L774 1193L773.5 1187L772 1181.5L770 1172L768.5 1164L767 1160L765.5 1157L764 1155L763 1156L762 1158.5L760.5 1160.5L759 1163.5L756.5 1167.5L754.5 1172.5L752 1177L750 1182.5L748 1187.5L745 1195L743 1201L741 1204.5L740 1207.5L737.5 1212.5L735 1217.5L732 1222.5L729 1227.5L724.5 1233L720.5 1237.5L717 1241L711 1244H699L695 1242L691 1239L689 1235.86V1209.17V1152L688 1137.5V1125L689 1120L690 1117L692 1115Z" fill="#0084B4"/>
<path fill-rule="evenodd" clip-rule="evenodd" d="M854 1009L857.5 1008H863L866 1009L869 1010L871.5 1012L874 1014.5L875.5 1017L877 1020L878 1026.69V1096L878.5 1097L880 1098H884L889.5 1097L894 1096L898.5 1094.5L904.5 1093L909 1092H915L917.5 1093L919.5 1094.5L920.5 1097L921.5 1100.5V1106L921 1109.5L918.5 1113L915.5 1115.5L911.5 1117L906.5 1118L901.5 1120L898.5 1121L896 1122L891.5 1122.5L888 1124L884 1126L881 1128L878.5 1129.5L877 1131L875.5 1133.38V1167L876.5 1177L877.5 1187.5C877.833 1188.67 878.5 1191.2 878.5 1192C878.5 1192.8 879.167 1196.67 879.5 1198.5L880.5 1205.5L881.5 1213L882.5 1218.5L884 1223.5L885.5 1230.5L886 1233L886.5 1236.5V1242L885 1245L883.5 1247.5L881 1249L878.5 1250.5L875.5 1252H870.5L868 1251.5L865.5 1250.5L863.5 1249.5L861.5 1248L859 1245L856 1242L855 1240L854 1236L853 1228.5L852 1222.5L850 1200L849 1166.5V1143.5L848.5 1139H847L842.5 1140L838.5 1142L834 1144H825.5L821 1143L818.5 1141L816.5 1140L814 1138L811.5 1135L809 1133V1126.5L810 1122.5L812 1121L814.5 1120L821 1119L829 1117L833 1116L835.5 1115L839 1114L841 1113L845 1112.5L846.5 1111.5L848 1109.5L849 1107V1074.5V1013.5L850 1011.5L852 1010.5L854 1009Z" fill="#0084B4"/>
<path fill-rule="evenodd" clip-rule="evenodd" d="M1052.5 1087L1057 1086H1062H1066.5L1068.5 1087L1070 1088.5L1072 1091L1074 1094L1075 1096V1098L1074 1100L1072.5 1101.5L1071 1103L1069 1105L1067.5 1108L1066 1110.5L1064 1114.5L1063 1118L1062 1122L1061 1128V1138L1062 1143.5L1064 1147L1065.5 1152L1067 1155.5L1070 1161.5L1072 1165L1076 1173L1077 1175L1081.5 1184L1084.5 1190L1088 1197L1090.5 1203.5L1092.5 1209L1094 1215.5L1095 1223V1239L1094 1242.5L1093 1247L1091 1250.5L1089 1255L1086.5 1258.5L1084.5 1261.5L1081.5 1264L1078.5 1266.5L1075 1269L1070.5 1271L1067 1273L1062 1274H1051L1048 1273L1045 1271L1042 1269L1040 1267L1038 1264.5L1036 1261.5L1035 1258.5V1254L1036 1252L1038.5 1250L1040 1249L1042.5 1248.5L1045 1249L1046 1251L1049 1252H1053.5L1056 1251.5L1058 1250.5L1060 1249L1062 1247L1063.5 1245L1065 1241.5L1066 1238L1067 1235L1066 1233L1065 1228.5L1064 1226L1063.5 1222.5L1062.5 1218L1061 1214.5L1059 1210L1056 1203.5L1054 1199L1052 1195L1049 1189L1047 1185L1045 1181L1042 1175L1040 1171L1038 1167L1036 1162L1034.5 1158.5L1033.5 1156L1032 1153L1031 1147.5L1030 1143V1134L1031 1127L1032 1119.5L1033 1114L1034 1111L1035 1107L1037 1103L1039 1099L1041 1096L1043 1093.5L1045.5 1091L1047.5 1089.5L1050 1088L1052.5 1087Z" fill="#0084B4"/>
<path fill-rule="evenodd" clip-rule="evenodd" d="M1137.5 1009L1141 1008H1146.5L1149.5 1009L1152.5 1010L1155 1012L1157.5 1014.5L1159 1017L1160.5 1020L1161.5 1026.69V1096L1162 1097L1163.5 1098H1167.5L1173 1097L1177.5 1096L1182 1094.5L1188 1093L1192.5 1092H1198.5L1201 1093L1203 1094.5L1204 1097L1205 1100.5V1106L1204.5 1109.5L1202 1113L1199 1115.5L1195 1117L1190 1118L1185 1120L1182 1121L1179.5 1122L1175 1122.5L1171.5 1124L1167.5 1126L1164.5 1128L1162 1129.5L1160.5 1131L1159 1133.38V1167L1160 1177L1161 1187.5C1161.33 1188.67 1162 1191.2 1162 1192C1162 1192.8 1162.67 1196.67 1163 1198.5L1164 1205.5L1165 1213L1166 1218.5L1167.5 1223.5L1169 1230.5L1169.5 1233L1170 1236.5V1242L1168.5 1245L1167 1247.5L1164.5 1249L1162 1250.5L1159 1252H1154L1151.5 1251.5L1149 1250.5L1147 1249.5L1145 1248L1142.5 1245L1139.5 1242L1138.5 1240L1137.5 1236L1136.5 1228.5L1135.5 1222.5L1133.5 1200L1132.5 1166.5V1143.5L1132 1139H1130.5L1126 1140L1122 1142L1117.5 1144H1109L1104.5 1143L1102 1141L1100 1140L1097.5 1138L1095 1135L1092.5 1133V1126.5L1093.5 1122.5L1095.5 1121L1098 1120L1104.5 1119L1112.5 1117L1116.5 1116L1119 1115L1122.5 1114L1124.5 1113L1128.5 1112.5L1130 1111.5L1131.5 1109.5L1132.5 1107V1074.5V1013.5L1133.5 1011.5L1135.5 1010.5L1137.5 1009Z" fill="#0084B4"/>
<path fill-rule="evenodd" clip-rule="evenodd" d="M1242 1124L1244 1125H1246.5L1249 1123.5L1251.5 1121.5L1253.5 1118.5L1254.5 1115.5L1254 1112L1253 1108L1251.5 1105.5L1250.5 1103V1101L1251 1097.5L1253 1095L1254.5 1091.5L1256.5 1088L1259 1084L1261.5 1080L1263.5 1077L1265.5 1074L1267 1072.5L1269 1071L1270.5 1069.5H1272.5L1274.5 1071L1276.5 1073L1278 1077V1089L1277 1094L1276 1098.5L1274 1103L1271.5 1109L1268 1116L1265 1123L1262 1129.5L1259 1136.5L1257 1141L1254 1146L1251.5 1152L1249.5 1155.5L1245.5 1162.5L1243 1167L1240 1172L1237 1178L1235 1182L1232.5 1186.5L1229 1193L1226 1199L1223 1204L1220 1209.5L1217 1215.5L1215 1220.5L1213 1225L1211 1229L1209 1233.5L1207 1237.5L1206 1239.5V1243L1206.5 1244.5L1209 1248.5L1212.5 1251.5L1218 1255L1222 1256H1261H1280.5L1298 1255L1306 1254.5L1310 1252.5L1314 1251L1317 1248L1318 1245V1237L1316.5 1234L1314.5 1230.5L1309 1228.5L1302 1226.5L1293.5 1225H1247L1246.5 1224.5L1247.5 1222.5L1249 1217L1252 1211L1256.5 1201L1262.5 1190L1267 1183L1270.5 1176.5L1275.5 1166L1280 1157.5L1283.5 1150L1286 1143.5L1288.5 1137.5L1291 1132.5L1293 1127L1295.5 1122L1298 1117L1299.5 1111L1301 1107.5L1302.5 1100.5L1304 1096L1305 1085V1069.5L1304 1065L1303 1059L1301 1054.5L1299 1050.5L1296 1047L1292.5 1044L1287 1042H1276L1270 1044L1264.5 1046L1259 1048.5L1254 1050.5L1249.5 1053.5L1244 1058L1239.5 1062L1235.5 1066.5L1232.5 1071L1229 1076L1226 1081.5L1224 1085.5L1222 1090L1221 1094V1103L1221.5 1105.5L1223.5 1108.5L1225.5 1110.5L1228 1113.5L1230.5 1115.5L1233 1118L1235.5 1119.5L1238 1122L1242 1124Z" fill="#0084B4"/>
<path fill-rule="evenodd" clip-rule="evenodd" d="M1379 1072H1382.5H1394L1399.5 1073.5L1404.5 1076L1410.5 1079.5L1416 1084.5L1419.5 1089L1423 1093L1427.5 1099.5L1430.5 1108L1433 1115L1434 1124.5L1436 1133L1437 1141V1155.5L1436 1165.5L1434 1173.5L1432 1181L1429.5 1188L1427 1193L1424.5 1198.5L1420.5 1204L1416 1211L1411 1218L1405 1224L1401 1228.5L1395 1233L1388.5 1237L1383 1239.5L1376.5 1242H1362.5L1355.5 1239.5L1350 1237.5L1345.5 1234L1341.5 1230.5L1337 1225.5L1333 1219.5L1330 1214L1327 1205.5L1325.5 1199L1324 1192.5L1323.5 1184V1165.5L1324.5 1156L1326 1147L1327.5 1139.5L1329.5 1132L1332 1125L1335 1117L1337 1111L1339.5 1105L1343.5 1097L1347 1090.5L1353 1085L1358 1080.5L1363 1077.5L1368 1075.5L1373 1073.5L1379 1072ZM1385.5 1098L1383 1100L1380.5 1102L1378.5 1104.5L1375.5 1107.5L1372 1112L1371 1114L1368.5 1117.5L1366 1121L1363.5 1125.5L1362 1129.5L1361 1133L1359.5 1136.5L1358 1140L1356.5 1146L1355.5 1149L1355 1158L1354 1166.5V1181L1354.5 1186L1356 1192.5L1357.5 1197L1359 1201.5L1362 1207.5L1364.5 1211.5L1366 1215L1368 1216L1369.5 1217L1371 1216L1374 1214.5L1377 1212L1380.5 1207.5L1384 1204L1387.5 1200L1390.5 1196.5L1393 1192.5L1395.5 1189L1398 1185.5L1399.5 1181L1402 1177L1403.5 1172L1405 1169L1406.5 1162L1407.5 1156L1408 1149.5V1144L1407 1138.5L1405.5 1131L1405 1126L1403.5 1121L1402 1113.5L1401 1109.5L1399.5 1106.5L1398 1105L1395.5 1103L1393.5 1101.5L1391.5 1100L1389.5 1099.5L1388 1098.5L1387 1098H1385.5Z" fill="#0084B4"/>
<path fill-rule="evenodd" clip-rule="evenodd" d="M1664 1007L1667 1006H1671.5L1674 1007L1676.5 1008.5L1679.5 1010.5L1682 1012.5L1684.5 1014.5L1687 1016.5V1019V1024.5L1684.5 1028.5L1681 1030.5L1675.5 1032.5L1672 1035L1668.5 1037L1664.5 1039.5L1661.5 1042.5L1659 1045.5L1655.5 1049L1653 1051.5L1650 1055L1647.5 1058.5L1645.5 1062L1642.5 1065.5L1640.5 1069L1638.5 1073L1636 1076L1634.5 1078.5L1632.5 1083L1631 1084.5L1629.5 1088L1629 1090L1627 1093L1625.5 1096.5L1623.5 1101.5L1621.5 1105L1619.5 1110L1618 1114.5L1616.5 1118.5L1615 1122.5L1613 1126.5L1612 1131L1610.5 1134.5L1609 1136.5V1139H1611.5L1614 1138.5L1616.5 1137L1618 1136L1622.5 1134.5L1627 1132L1631.5 1131H1638L1642 1133L1646 1134.5L1650 1136.5L1653.5 1139L1656.5 1141.5L1659.5 1144.5L1662.5 1148L1665.5 1152L1667.5 1156L1669.5 1160.5L1670.5 1163.5L1672 1170V1181V1187.5L1670.5 1193L1668.5 1198L1667 1203L1665.5 1206.5L1663.5 1210L1659.5 1214.5L1657.5 1218L1655.5 1221L1652.5 1224L1650 1227.5L1646 1230.5L1643 1234L1640 1236.5L1637 1239L1633.5 1241L1631 1243L1627 1245L1622.5 1247H1614L1610.5 1246L1607 1245L1603 1243L1599 1241L1595.5 1239L1592 1237L1589.5 1235L1587.5 1233.5L1585.5 1231.5L1583 1228.5L1581 1226L1579 1223L1578 1220.5L1576.5 1218L1575 1215L1574 1212L1573 1208L1572 1203L1571.5 1198V1183L1572.5 1175L1573.5 1167L1575 1161L1576 1156.5L1577 1152.5L1578.5 1148L1579.5 1144.5L1580.5 1140.5L1581 1137.5L1582.5 1134L1583.5 1129.5L1585 1125.5L1586.5 1121L1588 1118L1589 1114L1590.5 1110.5L1592 1107L1593.5 1103L1594.5 1100.5L1596.5 1097L1598 1093L1600 1089.5L1601.5 1086L1603 1083.5L1605 1080.5L1606 1078L1607 1075.5L1608.5 1073L1610 1070L1612 1067L1613.5 1064L1615.5 1061L1616.5 1058.5L1619 1054.5L1621 1051.5L1622.5 1048.5L1624 1045L1626 1042L1628 1039L1630 1036.5L1632 1034L1634 1031L1636.5 1028L1639 1025.5L1642.5 1021.5L1645.5 1019L1649 1016L1653 1013L1656 1011L1660 1009L1664 1007ZM1606 1162H1605L1604 1164L1603 1166L1601.5 1170.5L1600 1177.5V1186L1600.5 1191L1601.5 1199.5L1603 1207L1604.5 1213L1606.5 1216.5L1608.5 1219H1612L1615 1217.5L1617.5 1216L1621 1213.5L1623.5 1211.5L1627 1208L1630 1205L1633.5 1201L1636.5 1196.5L1638.5 1193L1640 1188.5L1641.5 1184.5L1643 1178.5V1171L1641 1166.5L1639.5 1162L1637 1159L1634.5 1157H1631L1627.5 1159L1625 1160.5L1622 1162L1618 1164L1614.5 1164.5H1610.5L1608.5 1163.5L1607 1162.5L1606.5 1162H1606Z" fill="#0084B4"/>
</svg>
