<svg width="576" height="349" viewBox="0 0 576 349" fill="none" xmlns="http://www.w3.org/2000/svg">
<path d="M0.5 337.5L0 348.5H576V346.5L575 336L573.5 327L572 320L570 314L568 306L565.5 299.5L563 293.5L559.5 285.5L556 279L553.5 274L550.5 269L546.5 264L543.5 259L540.5 254L536 249L530.5 242.5L527 238.5L521.5 232.5L517 228L513 224L509.5 220.5L504.5 216L499 211.5L494 208L489 203.5L483 200L478 196L471.5 192L467.5 189.5V164L466.5 154.5L463.5 144.5L461.5 137L459.5 131.5L456.5 125L454.5 120L452 116L450.5 113L448 109L446 105.5L444.5 103.5V102L445.5 100.5L449.5 97L452.5 93L457 88.5L460 82.5L462.5 78L465 73L467.5 65L468.5 58.5V43.5L467.5 37L466.5 33L463.5 26.5L460.5 20L457.5 16L453 12L449.5 9L446 6L440.5 3.5L436 1.5L430.5 0H413.5L406 2L399 4.5L393 8L388.5 11L384.5 14L380.5 17.5L376.5 21L374 25L372 28.5L369.5 32.5L367.5 36.5L366 39.5L364 40L361 39L354.5 36.5L348 34.5L340 32L334.5 31L329 29.5L322.5 28.5L313.5 27L300 26H277.5L264.5 27.5L256 28.5L249.5 29.5L244.5 30.5L239.5 31.5L234 33L229.5 34.5L222 37L216.5 38.5L213 40.5H210L209 37.5L208 35L205.5 31L203.5 27.5L201 24L198.5 21L195 17L192.5 14.5L189.5 12L187 10L182.5 7.5L178 5L172.5 2.5L168.5 1L163.5 0H144.5L140.5 1.5L134.5 3.5L128.5 7L124 10.5L121 13.5L118 17L115 21L112.5 25.5L110 32L107.5 39V61L110 69L111.5 73.5L113 77L114.5 81.5L117 85L119.5 88.5L121.5 91.5L124 94.5L126.5 97L129.5 99.5L131.5 101.5V102.5L129 106L126.5 110L123.5 115.5L121 120L118.5 125.5L115.5 134.5L113 141.5L110 151.5L107.5 169.5V180.5L109 187.5V190L106.5 191.5L103 193.5L99.5 195.5L94.5 198.5L89 202.5L83.5 206.5L79 210L76 212L72.5 215L66.5 220.5L62.5 224L59 227.5L56 231L53 233.5L49.5 237L45.5 242L41.5 246.5L38.5 250.5L36 254.5L33 258L30 262L26 268.5L23 274L20.5 278.5L17 284.5L13.5 292.5L10 300.5L7.5 308L4.5 318.5L2.5 326.5L0.5 337.5Z" fill="white"/>
</svg>
